<svg xmlns="http://www.w3.org/2000/svg" xmlns:xlink="http://www.w3.org/1999/xlink" id="LoginKeyBrass" x="0px" y="0px" viewBox="0 0 32 32" style="enable-background:new 0 0 32 32;" xml:space="preserve"><g>	<path marker-start="none" marker-end="none" style="fill-rule:evenodd;clip-rule:evenodd;fill:#e1a91b;" d="M21.3,7.5  c0-1.2,1-2.2,2.2-2.2c0.9,0,1.6,0.5,2,1.3c-0.3-0.1-0.6-0.2-0.9-0.2c-1.2,0-2.2,1-2.2,2.2c0,0.3,0.1,0.6,0.2,0.9  C21.8,9.1,21.3,8.3,21.3,7.5z"></path>			<linearGradient id="SVGID_1_" gradientUnits="userSpaceOnUse" x1="-231.1209" y1="1018.5751" x2="-216.1211" y2="992.5753" gradientTransform="matrix(1 0 0 1 233.25 -981.7499)">		<stop offset="0" style="stop-color:#fabb1a"></stop>		<stop offset="1" style="stop-color:#ffcf4a"></stop>	</linearGradient>	<path marker-start="none" marker-end="none" style="fill-rule:evenodd;clip-rule:evenodd;fill:url(#SVGID_1_);" d="M1,31v-4.9  l13.1-13.1l5,4.9l0.1,0.4c0,1.4-0.4,2.8-1.8,4.2L17,22.9L14,20l-1,1v4H9v3H6v3H1z"></path>			<linearGradient id="SVGID_00000170258575641095602660000014378945482467893437_" gradientUnits="userSpaceOnUse" x1="-229.1464" y1="1008.062" x2="-218.1465" y2="1021.062" gradientTransform="matrix(1 0 0 1 245.25 -1004.9999)">		<stop offset="0" style="stop-color:#ffe49a"></stop>		<stop offset="1" style="stop-color:#fabb1a"></stop>	</linearGradient>			<path marker-start="none" marker-end="none" style="fill-rule:evenodd;clip-rule:evenodd;fill:url(#SVGID_00000170258575641095602660000014378945482467893437_);" d="  M13,10c0-5,4-9,9-9s9,4,9,9s-4,9-9,9S13,15,13,10z M26,8c0-1.1-0.9-2-2-2c-1.1,0-2,0.9-2,2s0.9,2,2,2C25.1,10,26,9.1,26,8z"></path>			<linearGradient id="SVGID_00000168837624245038712760000013426392589855212976_" gradientUnits="userSpaceOnUse" x1="-230.1133" y1="1010.0295" x2="-220.1133" y2="1021.0294" gradientTransform="matrix(1 0 0 1 248.25 -1004.2499)">		<stop offset="0" style="stop-color:#ffcf4a"></stop>		<stop offset="1" style="stop-color:#fabb1a"></stop>	</linearGradient>			<path marker-start="none" marker-end="none" style="fill-rule:evenodd;clip-rule:evenodd;fill:url(#SVGID_00000168837624245038712760000013426392589855212976_);" d="  M13,10c0-5,4-9,9-9s9,4,9,9s-4,9-9,9S13,15,13,10z M29,10c0-3.9-3.1-7-7-7s-7,3.1-7,7s3.1,7,7,7S29,13.9,29,10z"></path>			<linearGradient id="SVGID_00000061460822844152378780000008845000840442198204_" gradientUnits="userSpaceOnUse" x1="-227.5445" y1="1012.2211" x2="-235.6552" y2="1001.5545" gradientTransform="matrix(1 0 0 1 254.25 -995.9999)">		<stop offset="0" style="stop-color:#ffe49a"></stop>		<stop offset="1" style="stop-color:#e1a91b"></stop>	</linearGradient>			<path marker-start="none" marker-end="none" style="fill-rule:evenodd;clip-rule:evenodd;fill:url(#SVGID_00000061460822844152378780000008845000840442198204_);" d="  M29,10c0,3.9-3.1,7-7,7s-7-3.1-7-7s3.1-7,7-7S29,6.1,29,10z M16,10c0,3.3,2.7,6,6,6s6-2.7,6-6s-2.7-6-6-6S16,6.7,16,10z"></path>			<linearGradient id="SVGID_00000129891849313169345680000004636292842553343670_" gradientUnits="userSpaceOnUse" x1="-232.7681" y1="1014.2606" x2="-231.7679" y2="1015.2607" gradientTransform="matrix(1 0 0 1 240.75 -992.2499)">		<stop offset="0" style="stop-color:#e1a91b"></stop>		<stop offset="1" style="stop-color:#ffcf4a"></stop>	</linearGradient>			<path marker-start="none" marker-end="none" style="fill-rule:evenodd;clip-rule:evenodd;fill:url(#SVGID_00000129891849313169345680000004636292842553343670_);" d="  M2.3,28.7c-0.4-0.4-0.4-1,0-1.4l11-11c0.4-0.4,1-0.4,1.4,0s0.4,1,0,1.4l-11,11C3.3,29.1,2.7,29.1,2.3,28.7z"></path></g><g>			<linearGradient id="SVG_IDO1_" gradientUnits="userSpaceOnUse" x1="-229.7343" y1="1011.7606" x2="-214.7344" y2="1027.7605" gradientTransform="matrix(1 0 0 1 246 -995.9999)">		<stop offset="0" style="stop-color:#63d30f"></stop>		<stop offset="1" style="stop-color:#56b60e"></stop>	</linearGradient>			<circle style="fill-rule:evenodd;clip-rule:evenodd;fill:url(#SVG_IDO1_);stroke:#4ea10f;stroke-width:1;stroke-linecap:round;stroke-linejoin:round;stroke-miterlimit:10;" cx="24" cy="24" r="7.5"></circle>	<path style="fill:none;stroke:#ffffff;stroke-width:2;stroke-linecap:round;stroke-linejoin:round;stroke-miterlimit:10;" d="  M20.3,25.4l2.6,2.6l4.4-7.3"></path></g></svg>